<?xml version="1.0" encoding="UTF-8"?>
<svg version="1.1" xmlns="http://www.w3.org/2000/svg" width="24" height="24">
<path d="M0 0 C1.44113159 -0.08072754 1.44113159 -0.08072754 2.91137695 -0.16308594 C5.51171875 0.484375 5.51171875 0.484375 7.85620117 3.51464844 C8.67568237 4.98466309 8.67568237 4.98466309 9.51171875 6.484375 C8.56143799 6.80075928 7.61115723 7.11714355 6.63208008 7.44311523 C-19.16788009 16.02648031 -19.16788009 16.02648031 -44.26074219 26.45947266 C-46.47732288 27.479333 -48.7042257 28.47330202 -50.93359375 29.46484375 C-67.66424348 37.00435849 -82.68153884 46.69898816 -97.48828125 57.484375 C-96.9277002 57.23381348 -96.36711914 56.98325195 -95.78955078 56.72509766 C-0.92764537 14.49402529 103.97330851 4.84717345 202.51171875 41.484375 C214.3524416 46.0885225 225.96739395 51.18671338 237.51171875 56.484375 C207.73019415 34.02683947 173.48313779 20.58457766 138.51171875 8.484375 C139.69568972 5.11461146 140.65133019 2.68479614 143.51171875 0.484375 C152.08250739 -0.81587761 161.14074576 1.10468244 169.57421875 2.609375 C170.85135742 2.8360083 172.12849609 3.0626416 173.44433594 3.29614258 C183.82630982 5.21671601 193.63324515 7.78599209 203.51171875 11.484375 C204.949104 12.01224609 204.949104 12.01224609 206.41552734 12.55078125 C225.66198935 19.68693998 243.82258733 28.44987127 260.51171875 40.484375 C261.13264404 40.85908936 261.75356934 41.23380371 262.39331055 41.61987305 C269.04213098 45.93982646 271.63229478 51.58212564 274.82421875 58.671875 C275.37907959 59.86804443 275.93394043 61.06421387 276.50561523 62.29663086 C291.38639368 94.57617903 303.39511379 128.13992355 312.51171875 162.484375 C312.78177734 163.4851709 313.05183594 164.4859668 313.33007812 165.51708984 C322.49442305 199.66841719 328.73042892 235.15025154 330.51171875 270.484375 C330.5797168 271.76828125 330.64771484 273.0521875 330.71777344 274.375 C330.88934568 277.84897612 331.00255094 281.32163827 331.08190918 284.79888916 C331.13517897 286.80148907 331.22573187 288.80298854 331.31738281 290.80419922 C331.4171863 298.99339385 330.14855627 303.41293723 324.5390625 309.45507812 C323.87003906 310.12474609 323.20101563 310.79441406 322.51171875 311.484375 C321.73183594 312.42410156 320.95195312 313.36382812 320.1484375 314.33203125 C314.77354611 320.43937277 308.97474378 325.55451842 302.51171875 330.484375 C301.49722656 331.27585937 300.48273438 332.06734375 299.4375 332.8828125 C275.00106232 351.46437994 244.8674851 362.05192085 214.51171875 365.484375 C213.8038623 365.59394531 213.09600586 365.70351563 212.36669922 365.81640625 C198.75476593 367.89517433 198.75476593 367.89517433 193.6796875 364.703125 C191.32709563 362.09920545 189.43492556 359.41775105 187.51171875 356.484375 C186.02960558 354.65721961 184.52932714 352.84465725 183.01171875 351.046875 C181.91150391 349.685625 181.91150391 349.685625 180.7890625 348.296875 C179.21135342 346.34841782 177.61916273 344.41163161 176.015625 342.484375 C174.80712891 341.0303125 174.80712891 341.0303125 173.57421875 339.546875 C172.84332031 338.67160156 172.11242187 337.79632813 171.359375 336.89453125 C169.75497651 334.80169009 168.57558714 332.88504137 167.51171875 330.484375 C168.86588542 329.94270833 170.22005208 329.40104167 171.57421875 328.859375 C172.48816406 328.49199219 173.40210938 328.12460937 174.34375 327.74609375 C176.5654022 326.86126803 178.79248685 325.99001846 181.0234375 325.12890625 C201.01317043 317.38053775 218.19283478 307.54139771 233.51171875 292.484375 C234.86910156 291.15019531 234.86910156 291.15019531 236.25390625 289.7890625 C238.35467112 287.70138651 240.44118197 285.60196944 242.51171875 283.484375 C241.89167969 283.8246875 241.27164062 284.165 240.6328125 284.515625 C238.71813632 285.56354093 236.80121884 286.60736603 234.8828125 287.6484375 C232.61860203 288.88155328 230.36082514 290.12654985 228.109375 291.3828125 C218.20988284 296.85627981 208.00564275 301.28149306 197.51171875 305.484375 C196.68929688 305.81969238 195.866875 306.15500977 195.01953125 306.50048828 C115.64849141 338.75270015 27.27058447 335.79867755 -51.41967773 302.84667969 C-62.78414556 297.96615067 -73.73370687 292.37526008 -84.58496094 286.44897461 C-86.62101783 285.35858024 -86.62101783 285.35858024 -89.48828125 284.484375 C-69.81135911 307.10397199 -45.66588179 320.06884875 -17.48828125 329.484375 C-20.58435473 334.31964715 -24.02905705 338.74119576 -27.67578125 343.171875 C-28.24731934 343.87086914 -28.81885742 344.56986328 -29.40771484 345.29003906 C-31.09857623 347.35701632 -32.79291434 349.42109257 -34.48828125 351.484375 C-36.19726293 353.56717823 -37.90538291 355.65068294 -39.61328125 357.734375 C-40.29648438 358.56453125 -40.9796875 359.3946875 -41.68359375 360.25 C-43.49827945 362.39894279 -43.49827945 362.39894279 -44.78979492 364.60400391 C-46.48828125 366.484375 -46.48828125 366.484375 -48.78979492 366.91455078 C-50.11587769 366.86016846 -50.11587769 366.86016846 -51.46875 366.8046875 C-52.94093994 366.74909668 -52.94093994 366.74909668 -54.44287109 366.69238281 C-71.31815932 365.53976572 -87.37097189 362.61686486 -103.48828125 357.484375 C-104.20387207 357.25911133 -104.91946289 357.03384766 -105.65673828 356.80175781 C-135.57994095 347.13792842 -161.21724586 328.12482101 -180.48828125 303.484375 C-182.76220942 298.93651865 -181.73322245 292.82323842 -181.73828125 287.796875 C-181.73928833 287.10887817 -181.74029541 286.42088135 -181.74133301 285.71203613 C-181.666892 209.7603122 -159.57001407 131.63280912 -127.66699219 63.05224609 C-126.59604879 60.7191511 -125.58741919 58.36898689 -124.58984375 56.00390625 C-119.76492334 45.1339706 -112.41265391 40.26844275 -102.48828125 34.484375 C-100.80804531 33.46444463 -99.12837567 32.44358085 -97.44921875 31.421875 C-86.20297823 24.69176691 -74.73834481 19.12567063 -62.48828125 14.484375 C-61.7509375 14.20368164 -61.01359375 13.92298828 -60.25390625 13.63378906 C-46.53145528 8.46962201 -32.74655558 4.74484667 -18.30078125 2.234375 C-16.82242798 1.97116455 -16.82242798 1.97116455 -15.31420898 1.70263672 C-10.22856949 0.8631483 -5.14891605 0.26544829 0 0 Z M-41.23828125 179.734375 C-50.18792182 191.94409346 -53.25006781 205.68484652 -51.0234375 220.59765625 C-48.05925547 234.12064053 -41.03315852 244.90202518 -29.48828125 252.484375 C-19.53126393 258.40058335 -8.6995261 260.25542781 2.69921875 257.796875 C14.83473113 254.08192223 24.79836806 246.83308376 31.1171875 235.640625 C37.18103997 222.69492236 39.18082603 207.68115521 34.88671875 193.796875 C31.87994296 186.2746232 27.53768111 179.90774113 21.51171875 174.484375 C20.58359375 173.63875 19.65546875 172.793125 18.69921875 171.921875 C9.39763335 164.33750537 -1.71538664 162.48574749 -13.45458984 163.24609375 C-24.75918997 164.57061833 -34.13105246 171.1934992 -41.23828125 179.734375 Z M118.19921875 180.296875 C110.14615323 191.95442877 107.0411299 204.86894792 108.9765625 218.83984375 C111.67833785 233.4997727 118.31894645 244.01997109 130.51171875 252.484375 C141.16802167 258.96212762 153.08181925 260.20235477 165.19921875 257.421875 C176.18344827 253.97834296 185.16957026 245.58008107 191.11328125 235.8671875 C197.95368089 222.7064186 199.04221362 208.9880449 194.6953125 194.82421875 C190.11969251 182.43749853 182.11686019 172.20994979 170.1015625 166.4921875 C150.85168905 159.00128652 131.22768097 164.16009946 118.19921875 180.296875 Z " fill="#FEFEFE" transform="translate(181.48828125,72.515625)"/>
</svg>
