<?xml version="1.0" encoding="UTF-8"?>
<svg version="1.1" xmlns="http://www.w3.org/2000/svg" width="24" height="24">
<path d="M0 0 C6.51300449 6.51300449 10.14388224 18.34343071 14.0234375 26.5625 C14.40419434 27.36816406 14.78495117 28.17382812 15.17724609 29.00390625 C16 31 16 31 16 33 C16.56235352 32.87447754 17.12470703 32.74895508 17.70410156 32.61962891 C60.87991121 23.43936156 113.87914138 23.27471081 157 33 C157.24105469 32.20335937 157.48210937 31.40671875 157.73046875 30.5859375 C159.31240175 26.11758521 161.27806528 21.90235697 163.3125 17.625 C163.69083984 16.81289063 164.06917969 16.00078125 164.45898438 15.1640625 C166.96802146 9.86579129 169.77750514 4.89683714 173 0 C212.58083183 2.93170743 269.04651123 17.41646942 303 40 C304.77626381 42.35076497 306.33633663 44.62773419 307.875 47.125 C308.34131836 47.86580811 308.80763672 48.60661621 309.28808594 49.36987305 C310.8734326 51.90441637 312.43760767 54.45124888 314 57 C314.57073242 57.92216309 315.14146484 58.84432617 315.72949219 59.79443359 C359.84924254 131.23384427 388.00380276 210.09693428 395 294 C395.09498779 295.05155273 395.18997559 296.10310547 395.2878418 297.18652344 C396.21767515 308.82721045 396.18609508 320.47575685 396.18530273 332.14697266 C396.1874701 335.70097184 396.20562937 339.25464995 396.22460938 342.80859375 C396.24499792 349.87507352 396.16318486 356.93542273 396 364 C395.9722348 365.23999756 395.9444696 366.47999512 395.91586304 367.75756836 C395.80983693 371.4512733 395.64559603 375.13759307 395.4609375 378.828125 C395.42981369 379.94797791 395.39868988 381.06783081 395.36662292 382.22161865 C395.02402502 387.74952586 394.51597955 391.17964222 390.41992188 395.09838867 C387.68337486 397.23656334 384.91104343 399.12418053 381.7578125 400.59765625 C377.90668972 402.50607383 374.39848487 404.64118561 370.84838867 407.05786133 C332.88585244 432.78352294 290.78174309 451.90647955 247.5 466.6875 C246.79504395 466.93153564 246.09008789 467.17557129 245.36376953 467.42700195 C241.78950728 468.60876414 238.74985604 469.52602754 235 469 C233.10644531 467.03491211 233.10644531 467.03491211 231.328125 464.27734375 C230.33800415 462.76781128 230.33800415 462.76781128 229.32788086 461.2277832 C228.64218018 460.14198975 227.95647949 459.05619629 227.25 457.9375 C226.5391626 456.83946045 225.8283252 455.7414209 225.09594727 454.61010742 C223.04155423 451.42029936 221.01452603 448.21510215 219 445 C218.50290527 444.20819336 218.00581055 443.41638672 217.49365234 442.60058594 C203 419.34294842 203 419.34294842 203 414 C203.64211426 413.72438232 204.28422852 413.44876465 204.94580078 413.16479492 C216.87749449 408.02533069 228.73884304 402.78275198 240.375 397 C241.30070801 396.54391357 242.22641602 396.08782715 243.18017578 395.61791992 C244.03595215 395.18713135 244.89172852 394.75634277 245.7734375 394.3125 C246.52028809 393.93738281 247.26713867 393.56226563 248.03662109 393.17578125 C250.02335028 391.98601654 251.44520478 390.70529891 253 389 C251.6436006 387.79129742 250.26392171 386.60868646 248.875 385.4375 C248.10929687 384.77621094 247.34359375 384.11492187 246.5546875 383.43359375 C243.1883668 381.54454223 241.71409967 382.15232478 238 383 C236.15347508 383.67067415 234.32866633 384.4034751 232.52734375 385.1875 C231.47796631 385.63456299 230.42858887 386.08162598 229.34741211 386.54223633 C228.22214111 387.02329834 227.09687012 387.50436035 225.9375 388 C195.17184255 400.80525597 163.02018807 408.76596402 130 413 C129.09910645 413.11859375 128.19821289 413.2371875 127.27001953 413.359375 C59.65463695 421.86031739 -7.87221015 407.33272055 -70 381 C-73.3 383.64 -76.6 386.28 -80 389 C-75.4579408 392.4065444 -70.76770391 394.93368215 -65.75 397.5625 C-64.74960693 398.08682617 -63.74921387 398.61115234 -62.71850586 399.15136719 C-51.76639693 404.78771923 -40.44561777 409.46979135 -29 414 C-38.49813006 433.45095783 -49.46785543 451.36370383 -62 469 C-112.20550591 464.20830642 -171.45858965 426.23074062 -211.375 397.8125 C-212.49902222 397.01972656 -212.49902222 397.01972656 -213.64575195 396.2109375 C-214.6680188 395.46650391 -214.6680188 395.46650391 -215.7109375 394.70703125 C-216.30181152 394.2788208 -216.89268555 393.85061035 -217.50146484 393.40942383 C-222.55889082 388.65274084 -221.73310272 381.25017886 -222.125 374.8125 C-222.16669312 374.14461456 -222.20838623 373.47672913 -222.25134277 372.78860474 C-227.57331632 285.36736283 -212.35548804 199.06373501 -139.87109375 55.62109375 C-138.13965665 52.90309535 -136.68011124 50.33034677 -135.28515625 47.41015625 C-129.32491432 35.62616647 -115.61576022 32.33092469 -104 28 C-102.6765114 27.49989579 -101.35310804 26.99956596 -100.02978516 26.49902344 C-73.82130208 16.64162219 -47.19668154 8.77166117 -19.8125 2.9375 C-19.09818817 2.78493744 -18.38387634 2.63237488 -17.6479187 2.47518921 C-15.62742736 2.04754361 -13.60534346 1.62891724 -11.58203125 1.21484375 C-10.42936768 0.97886475 -9.2767041 0.74288574 -8.08911133 0.49975586 C-5.30006623 0.04854466 -2.81472878 -0.21506218 0 0 Z M-56 215 C-67.63708455 228.99166975 -72.33498178 245.85354943 -71.20703125 263.84033203 C-69.65418844 280.03897298 -62.56281046 293.60326223 -51 305 C-50.43667969 305.57363281 -49.87335938 306.14726562 -49.29296875 306.73828125 C-38.79741816 316.62095298 -25.79626852 319.54578656 -11.84375 319.30859375 C-1.10572384 318.44649612 7.3776605 314.23834828 16 308 C17.051875 307.2575 18.10375 306.515 19.1875 305.75 C31.87393711 293.34548372 38.79279851 276.83930739 39.47485352 259.21923828 C39.66554161 241.91660814 34.27619885 225.83404379 22.3125 213.1652832 C11.81756232 202.54835248 -0.83179506 196.43482765 -15.8125 195.8515625 C-31.88693142 196.03213182 -45.08266361 203.64155911 -56 215 Z M149.83984375 214.2109375 C139.01001847 226.77270015 133.14781676 243.53720359 133.71484375 260.12890625 C135.2779153 275.8666814 139.97462423 288.75971563 150 301 C150.52078125 301.64710938 151.0415625 302.29421875 151.578125 302.9609375 C160.03340753 312.39839931 173.1191224 318.22986901 185.55859375 319.30859375 C201.82949183 319.85817373 215.07775781 314.18180623 226.90234375 303.19140625 C239.96886324 289.54090824 244.52240612 272.65628834 244.42163086 254.22216797 C243.99303949 237.65845547 237.50544333 222.98317801 226 211 C202.41525047 190.56944189 171.65913703 191.87871328 149.83984375 214.2109375 Z " fill="#000000" transform="translate(223,0)"/>
</svg>
