<?xml version="1.0" standalone="no"?>
<!DOCTYPE svg PUBLIC "-//W3C//DTD SVG 20010904//EN"
 "http://www.w3.org/TR/2001/REC-SVG-20010904/DTD/svg10.dtd">
<svg version="1.0" xmlns="http://www.w3.org/2000/svg"
 width="619.000000pt" height="469.000000pt" viewBox="0 0 619.000000 469.000000"
 preserveAspectRatio="xMidYMid meet">

<g transform="translate(0.000000,469.000000) scale(0.100000,-0.100000)"
fill="#000000" stroke="none">
<path d="M2045 4654 c-351 -75 -751 -202 -1031 -329 l-71 -32 -85 -134 c-424
-670 -672 -1305 -792 -2034 -50 -299 -72 -695 -56 -1015 5 -122 13 -246 16
-274 l6 -52 104 -73 c323 -226 687 -423 1046 -565 97 -38 402 -146 414 -146 7
0 136 192 199 295 67 110 139 245 133 249 -2 2 -30 13 -63 26 -86 34 -274 123
-373 176 l-84 46 28 24 c16 13 45 35 64 49 l36 25 116 -50 c331 -140 719 -239
1098 -281 149 -16 553 -17 700 0 379 42 759 140 1082 278 l128 54 61 -47 c56
-45 59 -49 42 -62 -33 -24 -326 -168 -413 -202 -47 -19 -87 -35 -89 -37 -8 -5
128 -238 225 -385 58 -87 106 -158 107 -158 2 0 75 24 162 54 427 143 830 341
1205 592 221 148 201 127 211 225 29 304 20 758 -22 1089 -99 791 -389 1562
-840 2236 l-68 101 -93 41 c-311 137 -694 255 -1052 327 -103 20 -131 23 -138
13 -19 -29 -148 -297 -148 -309 0 -8 -13 -10 -46 -5 -241 33 -366 40 -674 40
-306 -1 -426 -8 -650 -40 l-46 -6 -82 166 c-45 91 -88 166 -95 165 -6 0 -84
-16 -172 -35z m144 -1939 c177 -42 332 -189 399 -378 34 -96 42 -277 18 -382
-48 -203 -203 -379 -384 -435 -93 -29 -226 -27 -313 4 -139 49 -251 151 -320
291 -52 106 -69 180 -69 296 0 399 319 686 669 604z m2032 5 c197 -37 377
-216 435 -430 21 -79 24 -251 5 -330 -31 -126 -115 -266 -208 -342 -106 -88
-212 -122 -359 -116 -91 4 -109 8 -175 40 -178 84 -292 233 -333 431 -33 157
-14 296 58 443 37 73 59 104 118 160 136 128 288 176 459 144z"/>
</g>
</svg>
