<svg enable-background="new 0 0 20 20" viewBox="0 0 20 20" xmlns="http://www.w3.org/2000/svg"><path clip-rule="evenodd" d="m15 11c0-.28-.11-.53-.29-.71l-3-3c-.18-.18-.43-.29-.71-.29s-.53.11-.71.29l-3 3c-.18.18-.29.43-.29.71 0 .55.45 1 1 1 .28 0 .53-.11.71-.29l1.29-1.3v8.59c0 .55.45 1 1 1s1-.45 1-1v-8.59l1.29 1.29c.18.19.43.3.71.3.55 0 1-.45 1-1zm4-11h-18c-.55 0-1 .45-1 1v16c0 .55.45 1 1 1h7v-2h-6v-2h6v-1h-4v-11h14v11h-4v1h4v2h-4v2h5c.55 0 1-.45 1-1v-16c0-.55-.45-1-1-1zm-14 8h2v-2h-2zm2-5h-2v2h2z" fill-rule="evenodd"/></svg>